<svg width="259" height="53" viewBox="0 0 259 53" fill="none" xmlns="http://www.w3.org/2000/svg">
<path d="M14.8988 0.53L0.664917 3.55857V19.6857L14.8988 26.7402V0.53Z" fill="white"/>
<path d="M18.0619 0V18.1714L46.5297 3.02857C41.4688 0.605714 25.4424 0 18.0619 0Z" fill="white"/>
<path d="M48.663 27.2571V6.05714L27.5512 16.6571L48.663 27.2571Z" fill="white"/>
<path d="M48.3799 31.0217L34.146 23.32V49.1932C44.2679 46.7703 47.8527 36.0694 48.3799 31.0217Z" fill="white"/>
<path d="M24.3881 53L31.5602 50.2532V31.0217L8.57264 43.9143L24.3881 53Z" fill="white"/>
<path d="M0.664917 22.7143L22.8065 33.3143L6.9911 42.4C1.93015 39.9771 0.664917 28.2667 0.664917 22.7143Z" fill="white"/>
<path d="M53.9628 33V19H55.9628V33H53.9628ZM58.0342 33L64.3742 19H66.3542L72.7142 33H70.6142L64.9542 20.12H65.7542L60.0942 33H58.0342ZM60.7342 29.5L61.2742 27.9H69.1542L69.7342 29.5H60.7342ZM86.4337 33.16C85.3671 33.16 84.3804 32.9867 83.4737 32.64C82.5804 32.28 81.8004 31.78 81.1337 31.14C80.4804 30.4867 79.9671 29.7267 79.5937 28.86C79.2204 27.9933 79.0337 27.04 79.0337 26C79.0337 24.96 79.2204 24.0067 79.5937 23.14C79.9671 22.2733 80.4871 21.52 81.1537 20.88C81.8204 20.2267 82.6004 19.7267 83.4937 19.38C84.4004 19.02 85.3871 18.84 86.4537 18.84C87.5337 18.84 88.5271 19.0267 89.4337 19.4C90.3537 19.76 91.1337 20.3 91.7737 21.02L90.4737 22.28C89.9404 21.72 89.3404 21.3067 88.6737 21.04C88.0071 20.76 87.2937 20.62 86.5337 20.62C85.7471 20.62 85.0137 20.7533 84.3337 21.02C83.6671 21.2867 83.0871 21.66 82.5937 22.14C82.1004 22.62 81.7137 23.1933 81.4337 23.86C81.1671 24.5133 81.0337 25.2267 81.0337 26C81.0337 26.7733 81.1671 27.4933 81.4337 28.16C81.7137 28.8133 82.1004 29.38 82.5937 29.86C83.0871 30.34 83.6671 30.7133 84.3337 30.98C85.0137 31.2467 85.7471 31.38 86.5337 31.38C87.2937 31.38 88.0071 31.2467 88.6737 30.98C89.3404 30.7 89.9404 30.2733 90.4737 29.7L91.7737 30.96C91.1337 31.68 90.3537 32.2267 89.4337 32.6C88.5271 32.9733 87.5271 33.16 86.4337 33.16ZM100.79 33V30.76L100.69 30.34V26.52C100.69 25.7067 100.45 25.08 99.9701 24.64C99.5035 24.1867 98.7968 23.96 97.8501 23.96C97.2235 23.96 96.6101 24.0667 96.0101 24.28C95.4101 24.48 94.9035 24.7533 94.4901 25.1L93.6901 23.66C94.2368 23.22 94.8901 22.8867 95.6501 22.66C96.4235 22.42 97.2301 22.3 98.0701 22.3C99.5235 22.3 100.643 22.6533 101.43 23.36C102.217 24.0667 102.61 25.1467 102.61 26.6V33H100.79ZM97.3101 33.12C96.5235 33.12 95.8301 32.9867 95.2301 32.72C94.6435 32.4533 94.1901 32.0867 93.8701 31.62C93.5501 31.14 93.3901 30.6 93.3901 30C93.3901 29.4267 93.5235 28.9067 93.7901 28.44C94.0701 27.9733 94.5168 27.6 95.1301 27.32C95.7568 27.04 96.5968 26.9 97.6501 26.9H101.01V28.28H97.7301C96.7701 28.28 96.1235 28.44 95.7901 28.76C95.4568 29.08 95.2901 29.4667 95.2901 29.92C95.2901 30.44 95.4968 30.86 95.9101 31.18C96.3235 31.4867 96.8968 31.64 97.6301 31.64C98.3501 31.64 98.9768 31.48 99.5101 31.16C100.057 30.84 100.45 30.3733 100.69 29.76L101.07 31.08C100.817 31.7067 100.37 32.2067 99.7301 32.58C99.0901 32.94 98.2835 33.12 97.3101 33.12ZM119.423 22.3C120.277 22.3 121.03 22.4667 121.683 22.8C122.337 23.1333 122.843 23.64 123.203 24.32C123.577 25 123.763 25.86 123.763 26.9V33H121.843V27.12C121.843 26.0933 121.603 25.32 121.123 24.8C120.643 24.28 119.97 24.02 119.103 24.02C118.463 24.02 117.903 24.1533 117.423 24.42C116.943 24.6867 116.57 25.08 116.303 25.6C116.05 26.12 115.923 26.7667 115.923 27.54V33H114.003V27.12C114.003 26.0933 113.763 25.32 113.283 24.8C112.817 24.28 112.143 24.02 111.263 24.02C110.637 24.02 110.083 24.1533 109.603 24.42C109.123 24.6867 108.75 25.08 108.483 25.6C108.217 26.12 108.083 26.7667 108.083 27.54V33H106.163V22.4H108.003V25.22L107.703 24.5C108.037 23.8067 108.55 23.2667 109.243 22.88C109.937 22.4933 110.743 22.3 111.663 22.3C112.677 22.3 113.55 22.5533 114.283 23.06C115.017 23.5533 115.497 24.3067 115.723 25.32L114.943 25C115.263 24.1867 115.823 23.5333 116.623 23.04C117.423 22.5467 118.357 22.3 119.423 22.3ZM132.016 33.12C130.883 33.12 129.883 32.8867 129.016 32.42C128.163 31.9533 127.496 31.3133 127.016 30.5C126.549 29.6867 126.316 28.7533 126.316 27.7C126.316 26.6467 126.543 25.7133 126.996 24.9C127.463 24.0867 128.096 23.4533 128.896 23C129.709 22.5333 130.623 22.3 131.636 22.3C132.663 22.3 133.569 22.5267 134.356 22.98C135.143 23.4333 135.756 24.0733 136.196 24.9C136.649 25.7133 136.876 26.6667 136.876 27.76C136.876 27.84 136.869 27.9333 136.856 28.04C136.856 28.1467 136.849 28.2467 136.836 28.34H127.816V26.96H135.836L135.056 27.44C135.069 26.76 134.929 26.1533 134.636 25.62C134.343 25.0867 133.936 24.6733 133.416 24.38C132.909 24.0733 132.316 23.92 131.636 23.92C130.969 23.92 130.376 24.0733 129.856 24.38C129.336 24.6733 128.929 25.0933 128.636 25.64C128.343 26.1733 128.196 26.7867 128.196 27.48V27.8C128.196 28.5067 128.356 29.14 128.676 29.7C129.009 30.2467 129.469 30.6733 130.056 30.98C130.643 31.2867 131.316 31.44 132.076 31.44C132.703 31.44 133.269 31.3333 133.776 31.12C134.296 30.9067 134.749 30.5867 135.136 30.16L136.196 31.4C135.716 31.96 135.116 32.3867 134.396 32.68C133.689 32.9733 132.896 33.12 132.016 33.12ZM139.542 33V22.4H141.382V25.28L141.202 24.56C141.496 23.8267 141.989 23.2667 142.682 22.88C143.376 22.4933 144.229 22.3 145.242 22.3V24.16C145.162 24.1467 145.082 24.14 145.002 24.14C144.936 24.14 144.869 24.14 144.802 24.14C143.776 24.14 142.962 24.4467 142.362 25.06C141.762 25.6733 141.462 26.56 141.462 27.72V33H139.542ZM153.407 33V30.76L153.307 30.34V26.52C153.307 25.7067 153.067 25.08 152.587 24.64C152.121 24.1867 151.414 23.96 150.467 23.96C149.841 23.96 149.227 24.0667 148.627 24.28C148.027 24.48 147.521 24.7533 147.107 25.1L146.307 23.66C146.854 23.22 147.507 22.8867 148.267 22.66C149.041 22.42 149.847 22.3 150.687 22.3C152.141 22.3 153.261 22.6533 154.047 23.36C154.834 24.0667 155.227 25.1467 155.227 26.6V33H153.407ZM149.927 33.12C149.141 33.12 148.447 32.9867 147.847 32.72C147.261 32.4533 146.807 32.0867 146.487 31.62C146.167 31.14 146.007 30.6 146.007 30C146.007 29.4267 146.141 28.9067 146.407 28.44C146.687 27.9733 147.134 27.6 147.747 27.32C148.374 27.04 149.214 26.9 150.267 26.9H153.627V28.28H150.347C149.387 28.28 148.741 28.44 148.407 28.76C148.074 29.08 147.907 29.4667 147.907 29.92C147.907 30.44 148.114 30.86 148.527 31.18C148.941 31.4867 149.514 31.64 150.247 31.64C150.967 31.64 151.594 31.48 152.127 31.16C152.674 30.84 153.067 30.3733 153.307 29.76L153.687 31.08C153.434 31.7067 152.987 32.2067 152.347 32.58C151.707 32.94 150.901 33.12 149.927 33.12ZM168.512 33.16C167.445 33.16 166.425 33 165.452 32.68C164.478 32.3467 163.712 31.92 163.152 31.4L163.892 29.84C164.425 30.3067 165.105 30.6933 165.932 31C166.758 31.3067 167.618 31.46 168.512 31.46C169.325 31.46 169.985 31.3667 170.492 31.18C170.998 30.9933 171.372 30.74 171.612 30.42C171.852 30.0867 171.972 29.7133 171.972 29.3C171.972 28.82 171.812 28.4333 171.492 28.14C171.185 27.8467 170.778 27.6133 170.272 27.44C169.778 27.2533 169.232 27.0933 168.632 26.96C168.032 26.8267 167.425 26.6733 166.812 26.5C166.212 26.3133 165.658 26.08 165.152 25.8C164.658 25.52 164.258 25.1467 163.952 24.68C163.645 24.2 163.492 23.5867 163.492 22.84C163.492 22.12 163.678 21.46 164.052 20.86C164.438 20.2467 165.025 19.76 165.812 19.4C166.612 19.0267 167.625 18.84 168.852 18.84C169.665 18.84 170.472 18.9467 171.272 19.16C172.072 19.3733 172.765 19.68 173.352 20.08L172.692 21.68C172.092 21.28 171.458 20.9933 170.792 20.82C170.125 20.6333 169.478 20.54 168.852 20.54C168.065 20.54 167.418 20.64 166.912 20.84C166.405 21.04 166.032 21.3067 165.792 21.64C165.565 21.9733 165.452 22.3467 165.452 22.76C165.452 23.2533 165.605 23.6467 165.912 23.94C166.232 24.2333 166.638 24.4667 167.132 24.64C167.638 24.8133 168.192 24.9733 168.792 25.12C169.392 25.2533 169.992 25.4067 170.592 25.58C171.205 25.7533 171.758 25.98 172.252 26.26C172.758 26.54 173.165 26.9133 173.472 27.38C173.778 27.8467 173.932 28.4467 173.932 29.18C173.932 29.8867 173.738 30.5467 173.352 31.16C172.965 31.76 172.365 32.2467 171.552 32.62C170.752 32.98 169.738 33.16 168.512 33.16ZM181.293 33.12C180.16 33.12 179.16 32.8867 178.293 32.42C177.44 31.9533 176.773 31.3133 176.293 30.5C175.827 29.6867 175.593 28.7533 175.593 27.7C175.593 26.6467 175.82 25.7133 176.273 24.9C176.74 24.0867 177.373 23.4533 178.173 23C178.987 22.5333 179.9 22.3 180.913 22.3C181.94 22.3 182.847 22.5267 183.633 22.98C184.42 23.4333 185.033 24.0733 185.473 24.9C185.927 25.7133 186.153 26.6667 186.153 27.76C186.153 27.84 186.147 27.9333 186.133 28.04C186.133 28.1467 186.127 28.2467 186.113 28.34H177.093V26.96H185.113L184.333 27.44C184.347 26.76 184.207 26.1533 183.913 25.62C183.62 25.0867 183.213 24.6733 182.693 24.38C182.187 24.0733 181.593 23.92 180.913 23.92C180.247 23.92 179.653 24.0733 179.133 24.38C178.613 24.6733 178.207 25.0933 177.913 25.64C177.62 26.1733 177.473 26.7867 177.473 27.48V27.8C177.473 28.5067 177.633 29.14 177.953 29.7C178.287 30.2467 178.747 30.6733 179.333 30.98C179.92 31.2867 180.593 31.44 181.353 31.44C181.98 31.44 182.547 31.3333 183.053 31.12C183.573 30.9067 184.027 30.5867 184.413 30.16L185.473 31.4C184.993 31.96 184.393 32.3867 183.673 32.68C182.967 32.9733 182.173 33.12 181.293 33.12ZM193.44 33.12C192.36 33.12 191.393 32.8867 190.54 32.42C189.7 31.9533 189.04 31.3133 188.56 30.5C188.08 29.6867 187.84 28.7533 187.84 27.7C187.84 26.6467 188.08 25.7133 188.56 24.9C189.04 24.0867 189.7 23.4533 190.54 23C191.393 22.5333 192.36 22.3 193.44 22.3C194.4 22.3 195.253 22.4933 196 22.88C196.76 23.2533 197.346 23.8133 197.76 24.56L196.3 25.5C195.953 24.98 195.526 24.6 195.02 24.36C194.526 24.1067 193.993 23.98 193.42 23.98C192.726 23.98 192.106 24.1333 191.56 24.44C191.013 24.7467 190.58 25.18 190.26 25.74C189.94 26.2867 189.78 26.94 189.78 27.7C189.78 28.46 189.94 29.12 190.26 29.68C190.58 30.24 191.013 30.6733 191.56 30.98C192.106 31.2867 192.726 31.44 193.42 31.44C193.993 31.44 194.526 31.32 195.02 31.08C195.526 30.8267 195.953 30.44 196.3 29.92L197.76 30.84C197.346 31.5733 196.76 32.14 196 32.54C195.253 32.9267 194.4 33.12 193.44 33.12ZM204.705 33.12C203.799 33.12 202.999 32.9533 202.305 32.62C201.625 32.2867 201.092 31.78 200.705 31.1C200.332 30.4067 200.145 29.54 200.145 28.5V22.4H202.065V28.28C202.065 29.32 202.312 30.1 202.805 30.62C203.312 31.14 204.019 31.4 204.925 31.4C205.592 31.4 206.172 31.2667 206.665 31C207.159 30.72 207.539 30.32 207.805 29.8C208.072 29.2667 208.205 28.6267 208.205 27.88V22.4H210.125V33H208.305V30.14L208.605 30.9C208.259 31.6067 207.739 32.1533 207.045 32.54C206.352 32.9267 205.572 33.12 204.705 33.12ZM213.78 33V22.4H215.62V25.28L215.44 24.56C215.734 23.8267 216.227 23.2667 216.92 22.88C217.614 22.4933 218.467 22.3 219.48 22.3V24.16C219.4 24.1467 219.32 24.14 219.24 24.14C219.174 24.14 219.107 24.14 219.04 24.14C218.014 24.14 217.2 24.4467 216.6 25.06C216 25.6733 215.7 26.56 215.7 27.72V33H213.78ZM221.847 33V22.4H223.767V33H221.847ZM222.807 20.36C222.434 20.36 222.12 20.24 221.867 20C221.627 19.76 221.507 19.4667 221.507 19.12C221.507 18.76 221.627 18.46 221.867 18.22C222.12 17.98 222.434 17.86 222.807 17.86C223.18 17.86 223.487 17.98 223.727 18.22C223.98 18.4467 224.107 18.7333 224.107 19.08C224.107 19.44 223.987 19.7467 223.747 20C223.507 20.24 223.194 20.36 222.807 20.36ZM231.073 33.12C230.006 33.12 229.179 32.8333 228.593 32.26C228.006 31.6867 227.713 30.8667 227.713 29.8V20.08H229.633V29.72C229.633 30.2933 229.773 30.7333 230.053 31.04C230.346 31.3467 230.759 31.5 231.293 31.5C231.893 31.5 232.393 31.3333 232.793 31L233.393 32.38C233.099 32.6333 232.746 32.82 232.333 32.94C231.933 33.06 231.513 33.12 231.073 33.12ZM225.913 23.98V22.4H232.673V23.98H225.913ZM235.979 37C235.472 37 234.979 36.9133 234.499 36.74C234.019 36.58 233.605 36.34 233.259 36.02L234.079 34.58C234.345 34.8333 234.639 35.0267 234.959 35.16C235.279 35.2933 235.619 35.36 235.979 35.36C236.445 35.36 236.832 35.24 237.139 35C237.445 34.76 237.732 34.3333 237.999 33.72L238.659 32.26L238.859 32.02L243.019 22.4H244.899L239.759 34.06C239.452 34.8067 239.105 35.3933 238.719 35.82C238.345 36.2467 237.932 36.5467 237.479 36.72C237.025 36.9067 236.525 37 235.979 37ZM238.499 33.34L233.659 22.4H235.659L239.779 31.84L238.499 33.34Z" fill="white"/>
</svg>
